<?xml version="1.0" encoding="utf-8"?>
<!-- Generator: Adobe Illustrator 23.0.1, SVG Export Plug-In . SVG Version: 6.00 Build 0)  -->
<svg version="1.0" id="Layer_1" xmlns="http://www.w3.org/2000/svg" xmlns:xlink="http://www.w3.org/1999/xlink" x="0px" y="0px"
	 viewBox="0 0 728.5 515.9" style="enable-background:new 0 0 728.5 515.9;" xml:space="preserve">
<style type="text/css">
	.st0{display:none;opacity:0.36;}
	.st1{display:inline;}
	.st2{fill:#FFCFA8;}
	.st3{display:inline;fill:#FFCFA8;}
	.st4{fill:url(#SVGID_1_);}
	.st5{fill:url(#SVGID_2_);}
	.st6{fill:url(#SVGID_3_);}
	.st7{fill:url(#SVGID_4_);}
	.st8{fill:none;stroke:#000000;stroke-miterlimit:10;}
	.st9{fill:#FFFFFF;}
	.st10{fill:url(#SVGID_5_);}
</style>
<g class="st0">
	<g class="st1">
		<g>
			<line class="st2" x1="437.5" y1="136.1" x2="256" y2="135.7"/>
			
				<rect x="340" y="45.2" transform="matrix(2.158568e-03 -1 1 2.158568e-03 210.1197 482.373)" class="st2" width="13.5" height="181.5"/>
		</g>
		<g>
			<path class="st2" d="M437.5,145.8C437.5,145.8,437.5,145.8,437.5,145.8L256,145.4c-5.4,0-9.7-4.4-9.7-9.8c0-5.4,4.4-9.7,9.7-9.7
				c0,0,0,0,0,0l181.5,0.4c5.4,0,9.7,4.4,9.7,9.8C447.2,141.5,442.9,145.8,437.5,145.8z"/>
			<path class="st2" d="M437.5,152.6L437.5,152.6L256,152.2c-9.1,0-16.5-7.4-16.4-16.5c0-9.1,7.4-16.4,16.5-16.4l181.5,0.4
				c4.4,0,8.5,1.7,11.6,4.8c3.1,3.1,4.8,7.3,4.8,11.7C454,145.2,446.6,152.6,437.5,152.6z M256,132.7c-1.7,0-3,1.3-3,3
				c0,1.6,1.3,3,3,3l181.5,0.4l0,6.7v-6.7c1.6,0,3-1.3,3-3c0-1.1-0.5-1.8-0.9-2.1c-0.3-0.3-1-0.9-2.1-0.9L256,132.7z"/>
		</g>
	</g>
	<g class="st1">
		<g>
			<line class="st2" x1="437.3" y1="141.6" x2="264.5" y2="341.4"/>
			
				<rect x="218.8" y="234.8" transform="matrix(0.6542 -0.7563 0.7563 0.6542 -61.3337 348.8707)" class="st2" width="264.1" height="13.5"/>
		</g>
		<g>
			<path class="st2" d="M264.5,351.1c-2.3,0-4.5-0.8-6.4-2.4c-4.1-3.5-4.5-9.7-1-13.7l172.8-199.8c3.5-4.1,9.7-4.5,13.7-1
				c4.1,3.5,4.5,9.7,1,13.7L271.8,347.8C269.9,350,267.2,351.1,264.5,351.1z"/>
			<path class="st2" d="M264.5,357.9c-4,0-7.8-1.4-10.8-4c-6.9-5.9-7.6-16.4-1.7-23.2l172.8-199.8c6-6.9,16.4-7.6,23.2-1.7
				c6.9,5.9,7.6,16.4,1.7,23.2L276.9,352.2C273.8,355.8,269.3,357.9,264.5,357.9z M437.3,138.6c-0.8,0-1.7,0.4-2.3,1L262.2,339.4
				c-1.1,1.2-0.9,3.1,0.3,4.2c0.7,0.6,1.4,0.7,2,0.7c0.5,0,1.5-0.1,2.3-1l172.8-199.8c0.7-0.8,0.8-1.7,0.7-2.2c0-0.5-0.2-1.3-1-2.1
				C438.7,138.9,438,138.6,437.3,138.6z"/>
		</g>
	</g>
	<g class="st1">
		<g>
			<line class="st2" x1="445.9" y1="348.3" x2="264.5" y2="347.9"/>
			
				<rect x="348.5" y="257.3" transform="matrix(2.158568e-03 -1 1 2.158568e-03 6.3589 702.531)" class="st2" width="13.5" height="181.5"/>
		</g>
		<g>
			<path class="st2" d="M445.9,358C445.9,358,445.9,358,445.9,358l-181.5-0.4c-5.4,0-9.7-4.4-9.7-9.8c0-5.4,4.4-9.7,9.7-9.7
				c0,0,0,0,0,0l181.5,0.4c5.4,0,9.7,4.4,9.7,9.8C455.7,353.7,451.3,358,445.9,358z"/>
			<path class="st2" d="M445.9,364.7L445.9,364.7l-181.5-0.4c-9.1,0-16.5-7.4-16.4-16.5c0-9.1,7.4-16.4,16.5-16.4l181.5,0.4
				c9.1,0,16.5,7.4,16.4,16.5C462.4,357.4,455,364.7,445.9,364.7z M264.5,344.9c-1.7,0-3,1.3-3,3c0,1.7,1.3,3,3,3l181.5,0.4l0,6.7
				v-6.7c1.6,0,3-1.3,3-3c0-1.6-1.3-3-3-3L264.5,344.9z"/>
		</g>
	</g>
	<g class="st1">
		<g>
			<line class="st2" x1="310.3" y1="197.8" x2="254.7" y2="136.6"/>
			
				<rect x="275.8" y="125.8" transform="matrix(0.7403 -0.6723 0.6723 0.7403 -39.0124 233.3599)" class="st2" width="13.5" height="82.7"/>
		</g>
		<g>
			<path class="st2" d="M310.3,207.5c-2.6,0-5.3-1.1-7.2-3.2l-55.6-61.2c-3.6-4-3.3-10.1,0.7-13.7c4-3.6,10.1-3.3,13.7,0.7
				l55.6,61.2c3.6,4,3.3,10.1-0.7,13.7C315,206.7,312.7,207.5,310.3,207.5z"/>
			<path class="st2" d="M310.3,214.3c-4.6,0-9.1-2-12.2-5.4l-55.6-61.2c-3-3.3-4.5-7.5-4.3-11.9c0.2-4.4,2.1-8.4,5.4-11.4
				c3.3-3,7.4-4.4,11.9-4.3c4.4,0.2,8.4,2.1,11.4,5.4l55.6,61.2c3,3.3,4.5,7.5,4.3,11.9c-0.2,4.4-2.1,8.4-5.4,11.4
				C318.4,212.7,314.4,214.3,310.3,214.3z M254.7,133.6c-0.7,0-1.4,0.3-2,0.8c-0.8,0.7-1,1.6-1,2.1s0,1.4,0.8,2.1l55.6,61.2
				c0.8,0.9,1.7,1,2.2,1c0.5,0,1.3-0.1,2-0.8c0.8-0.7,1-1.6,1-2.1c0-0.5,0-1.4-0.8-2.2L257,134.6
				C256.4,133.9,255.6,133.6,254.7,133.6z"/>
		</g>
	</g>
	<path class="st3" d="M320.6,184.2c-65.6-72.4-30.6-14.7-33.4-1.9c-1,4.8-1.8,8.8-1.5,12.6l31.3,33.2c1.3-0.3,2.6-1,3.9-2.2
		C328.7,218.1,331,195.6,320.6,184.2z"/>
	<g class="st1">
		<g>
			<g>
				<line class="st2" x1="445.1" y1="345.5" x2="395.1" y2="290.4"/>
				
					<rect x="413.4" y="280.7" transform="matrix(0.7403 -0.6723 0.6723 0.7403 -104.6349 365.0049)" class="st2" width="13.5" height="74.4"/>
			</g>
			<g>
				<path class="st2" d="M445.1,354.2c-2.4,0-4.8-1-6.5-2.9l-50-55.1c-3.3-3.6-3-9.1,0.6-12.4c3.6-3.3,9.1-3,12.4,0.6l50,55.1
					c3.3,3.6,3,9.1-0.6,12.4C449.3,353.5,447.2,354.2,445.1,354.2z"/>
				<path class="st2" d="M445.1,361c-4.4,0-8.6-1.9-11.5-5.1l-50-55.1c-5.7-6.3-5.3-16.2,1.1-21.9c3.1-2.8,7.1-4.2,11.2-4
					c4.1,0.2,7.9,2,10.7,5.1l50,55.1c5.7,6.3,5.3,16.2-1.1,21.9C452.7,359.6,449,361,445.1,361z M395.1,288.4c-0.5,0-1,0.2-1.4,0.5
					c-0.5,0.5-0.6,1-0.7,1.4c0,0.4,0.1,0.9,0.5,1.5l50,55.1c1.1,1.2,1.9,1,2.9,0.1c0.8-0.7,0.9-2,0.1-2.9l-50-55.1
					C396.2,288.6,395.7,288.4,395.1,288.4z"/>
			</g>
		</g>
		<g>
			<g>
				<linearGradient id="SVGID_1_" gradientUnits="userSpaceOnUse" x1="395.1013" y1="317.9351" x2="445.1367" y2="317.9351">
					<stop  offset="0" style="stop-color:#FFFFFF"/>
					<stop  offset="1" style="stop-color:#000000"/>
				</linearGradient>
				<line class="st4" x1="445.1" y1="345.5" x2="395.1" y2="290.4"/>
				<linearGradient id="SVGID_2_" gradientUnits="userSpaceOnUse" x1="390.1103" y1="317.9343" x2="450.1269" y2="317.9343">
					<stop  offset="0" style="stop-color:#FFFFFF"/>
					<stop  offset="1" style="stop-color:#000000"/>
				</linearGradient>
				<polygon class="st5" points="440.1,350 390.1,294.9 400.1,285.9 450.1,341 				"/>
			</g>
			<g>
				<linearGradient id="SVGID_3_" gradientUnits="userSpaceOnUse" x1="386.3402" y1="317.9349" x2="453.8973" y2="317.9349">
					<stop  offset="0" style="stop-color:#FFFFFF"/>
					<stop  offset="1" style="stop-color:#000000"/>
				</linearGradient>
				<path class="st6" d="M445.1,354.2c-2.4,0-4.8-1-6.5-2.9l-50-55.1c-3.3-3.6-3-9.1,0.6-12.4c3.6-3.3,9.1-3,12.4,0.6l50,55.1
					c3.3,3.6,3,9.1-0.6,12.4C449.3,353.5,447.2,354.2,445.1,354.2z"/>
				<linearGradient id="SVGID_4_" gradientUnits="userSpaceOnUse" x1="379.6066" y1="317.9345" x2="460.6305" y2="317.9345">
					<stop  offset="0" style="stop-color:#FFFFFF"/>
					<stop  offset="1" style="stop-color:#000000"/>
				</linearGradient>
				<path class="st7" d="M445.1,361c-4.4,0-8.6-1.9-11.5-5.1l-50-55.1c-5.7-6.3-5.3-16.2,1.1-21.9c3.1-2.8,7.1-4.2,11.2-4
					c4.1,0.2,7.9,2,10.7,5.1l50,55.1c5.7,6.3,5.3,16.2-1.1,21.9C452.7,359.6,449,361,445.1,361z M395.1,288.4c-0.5,0-1,0.2-1.4,0.5
					c-0.5,0.5-0.6,1-0.7,1.4c0,0.4,0.1,0.9,0.5,1.5l50,55.1c1.1,1.2,1.9,1,2.9,0.1c0.8-0.7,0.9-2,0.1-2.9l-50-55.1
					C396.2,288.6,395.7,288.4,395.1,288.4z"/>
			</g>
		</g>
		<g>
			<g>
				<line class="st8" x1="445.1" y1="345.5" x2="395.1" y2="290.4"/>
				
					<rect x="413.4" y="280.7" transform="matrix(0.7403 -0.6723 0.6723 0.7403 -104.6349 365.0049)" class="st8" width="13.5" height="74.4"/>
			</g>
			<g>
				<path class="st8" d="M445.1,354.2c-2.4,0-4.8-1-6.5-2.9l-50-55.1c-3.3-3.6-3-9.1,0.6-12.4c3.6-3.3,9.1-3,12.4,0.6l50,55.1
					c3.3,3.6,3,9.1-0.6,12.4C449.3,353.5,447.2,354.2,445.1,354.2z"/>
				<path class="st8" d="M445.1,361c-4.4,0-8.6-1.9-11.5-5.1l-50-55.1c-5.7-6.3-5.3-16.2,1.1-21.9c3.1-2.8,7.1-4.2,11.2-4
					c4.1,0.2,7.9,2,10.7,5.1l50,55.1c5.7,6.3,5.3,16.2-1.1,21.9C452.7,359.6,449,361,445.1,361z M395.1,288.4c-0.5,0-1,0.2-1.4,0.5
					c-0.5,0.5-0.6,1-0.7,1.4c0,0.4,0.1,0.9,0.5,1.5l50,55.1c1.1,1.2,1.9,1,2.9,0.1c0.8-0.7,0.9-2,0.1-2.9l-50-55.1
					C396.2,288.6,395.7,288.4,395.1,288.4z"/>
			</g>
		</g>
	</g>
	<path class="st3" d="M416.8,302.8c0.8-3.7,1.5-6.8,1.6-9.8l-32.5-34.2c-0.7,0.4-1.3,0.8-2,1.5c-7.6,7.6-9.8,29.6,0.3,40.8
		C448.3,371.8,414.1,315.4,416.8,302.8z"/>
</g>
<rect x="182.2" y="87" class="st9" width="333" height="318"/>
<linearGradient id="SVGID_5_" gradientUnits="userSpaceOnUse" x1="248.5984" y1="245.9633" x2="448.7057" y2="245.9633">
	<stop  offset="0" style="stop-color:#0000FF"/>
	<stop  offset="1" style="stop-color:#000000"/>
</linearGradient>
<path class="st10" d="M443.9,329l-64.5-69.7c-0.2-0.2-0.4-0.4-0.6-0.6c-4.2,3.8-6.8,9.2-7.2,15.3c-0.6,8.4,2.7,17.3,9,24.5l0,0
	l25.6,27.6H297.7L436,161.5c2.3-2.8,3.3-6.3,2.9-9.6c-0.5-6.6-6.1-11.8-12.8-11.8H261.5c-5.9,0-10.9,4-12.4,9.4
	c-1.3,4.2-0.3,9,2.9,12.5l65.3,70.5c0.2,0.2,0.4,0.4,0.6,0.6c4.2-3.8,6.8-9.2,7.2-15.3c0.6-8.4-2.7-17.3-9-24.5l0,0l-25.3-27.4
	l107.9,0L260.7,330c-4.4,5.2-3.9,13,1,17.6c2.4,2.6,5.8,4.3,9.6,4.3l164.6,0c7.1,0,12.9-5.8,12.9-12.9v0
	C448.7,335,446.8,331.3,443.9,329z"/>
<g>
</g>
<g>
</g>
<g>
</g>
<g>
</g>
<g>
</g>
</svg>
